<svg width="36" height="36" viewBox="0 0 36 36" fill="none" xmlns="http://www.w3.org/2000/svg">
<path fill-rule="evenodd" clip-rule="evenodd" d="M19.7738 5.29176C19.6706 4.40365 18.9158 3.71429 18.0001 3.71429C17.0138 3.71429 16.2144 4.51379 16.2144 5.50001V16.2143H5.50007L5.29182 16.2263C4.40371 16.3295 3.71436 17.0842 3.71436 18C3.71436 18.9862 4.51385 19.7857 5.50007 19.7857H16.2144V30.5L16.2264 30.7083C16.3295 31.5964 17.0843 32.2857 18.0001 32.2857C18.9863 32.2857 19.7858 31.4862 19.7858 30.5V19.7857H30.5001L30.7083 19.7737C31.5964 19.6706 32.2858 18.9158 32.2858 18C32.2858 17.0138 31.4863 16.2143 30.5001 16.2143H19.7858V5.50001L19.7738 5.29176Z" fill="#000"/>
</svg>
