<svg width="26" height="26" viewBox="0 0 26 26" fill="none" xmlns="http://www.w3.org/2000/svg">
<path d="M5.86371 15.9551H2.51122C1.13005 15.9551 0 17.0852 0 18.4663V24.7444C0 25.435 0.565025 26 1.25561 26H5.86371C6.5543 26 7.11932 25.435 7.11932 24.7444V17.2107C7.11932 16.5201 6.5543 15.9551 5.86371 15.9551Z" fill="#000"/>
<path d="M14.2263 10.9326H10.8738C9.4926 10.9326 8.36255 12.0627 8.36255 13.4439V24.7444C8.36255 25.435 8.92757 26 9.61816 26H15.4819C16.1725 26 16.7375 25.435 16.7375 24.7444V13.4439C16.7375 12.0627 15.62 10.9326 14.2263 10.9326Z" fill="#000"/>
<path d="M22.6011 19.7219H19.2487C18.5581 19.7219 17.993 20.2869 17.993 20.9775V24.7444C17.993 25.435 18.5581 26 19.2487 26H23.8568C24.5473 26 25.1124 25.435 25.1124 24.7444V22.2331C25.1124 20.852 23.9823 19.7219 22.6011 19.7219Z" fill="#000"/>
<path d="M16.3349 4.46684C16.7242 4.0776 16.8749 3.61302 16.7493 3.21123C16.6237 2.80943 16.2345 2.52064 15.682 2.43275L14.4766 2.23185C14.4264 2.23185 14.3134 2.14396 14.2883 2.09373L13.6228 0.762784C13.1206 -0.254261 11.978 -0.254261 11.4757 0.762784L10.8102 2.09373C10.7977 2.14396 10.6847 2.23185 10.6345 2.23185L9.42901 2.43275C8.87654 2.52064 8.49986 2.80943 8.36174 3.21123C8.23618 3.61302 8.38685 4.0776 8.77609 4.46684L9.70524 5.40855C9.75547 5.44622 9.79314 5.59689 9.78058 5.64711L9.5169 6.80228C9.316 7.66865 9.64246 8.05789 9.85592 8.20856C10.0694 8.35924 10.534 8.56013 11.2999 8.10811L12.43 7.44264C12.4802 7.40497 12.6434 7.40497 12.6937 7.44264L13.8112 8.10811C14.1627 8.32157 14.4515 8.38435 14.6775 8.38435C14.9412 8.38435 15.1296 8.2839 15.2426 8.20856C15.456 8.05789 15.7825 7.66865 15.5816 6.80228L15.3179 5.64711C15.3053 5.58433 15.343 5.44622 15.3932 5.40855L16.3349 4.46684Z" fill="#000"/>
</svg>
