<svg width="21" height="26" viewBox="0 0 21 26" fill="none" xmlns="http://www.w3.org/2000/svg">
<path d="M15.4511 2.89707C15.4511 4.49368 14.1506 5.79415 12.554 5.79415H8.04746C7.24916 5.79415 6.52811 5.47225 6.0002 4.94434C5.47229 4.41643 5.15039 3.69538 5.15039 2.89707C5.15039 1.30046 6.45085 0 8.04746 0H12.554C13.3523 0 14.0734 0.321897 14.6013 0.849808C15.1292 1.37772 15.4511 2.09877 15.4511 2.89707Z" fill="#000"/>
<path d="M19.0949 3.89978C18.7988 3.65514 18.464 3.462 18.1035 3.32036C17.7301 3.17873 17.3567 3.47488 17.2794 3.86115C16.8416 6.06293 14.8974 7.72392 12.554 7.72392H8.04742C6.75984 7.72392 5.5495 7.22176 4.63532 6.30757C3.96577 5.63802 3.50224 4.78821 3.32198 3.87403C3.24472 3.48775 2.85844 3.17873 2.48504 3.33324C0.991442 3.93841 0 5.30325 0 8.04581V20.5997C0 24.4625 2.30478 25.7501 5.15035 25.7501H15.4511C18.2966 25.7501 20.6014 24.4625 20.6014 20.5997V8.04581C20.6014 5.94704 20.022 4.65946 19.0949 3.89978ZM5.15035 13.1961H10.3007C10.8286 13.1961 11.2664 13.6339 11.2664 14.1618C11.2664 14.6897 10.8286 15.1275 10.3007 15.1275H5.15035C4.62244 15.1275 4.18466 14.6897 4.18466 14.1618C4.18466 13.6339 4.62244 13.1961 5.15035 13.1961ZM15.4511 20.2778H5.15035C4.62244 20.2778 4.18466 19.8401 4.18466 19.3122C4.18466 18.7842 4.62244 18.3465 5.15035 18.3465H15.4511C15.979 18.3465 16.4167 18.7842 16.4167 19.3122C16.4167 19.8401 15.979 20.2778 15.4511 20.2778Z" fill="#000"/>
</svg>
